<?xml version="1.0" encoding="UTF-8" standalone="no"?>
<!DOCTYPE svg PUBLIC "-//W3C//DTD SVG 1.1//EN" "http://www.w3.org/Graphics/SVG/1.1/DTD/svg11.dtd">
<svg width="100%" height="100%" viewBox="0 0 200 200" version="1.1" xmlns="http://www.w3.org/2000/svg" xmlns:xlink="http://www.w3.org/1999/xlink" xml:space="preserve" xmlns:serif="http://www.serif.com/" style="fill-rule:evenodd;clip-rule:evenodd;stroke-linejoin:round;stroke-miterlimit:2;">
    <g transform="matrix(1,0,0,1,-4696,0)">
        <g id="Artboard13" transform="matrix(1,0,0,1,-0.333333,0)">
            <rect x="4696.33" y="0" width="200" height="200" style="fill:none;"/>
            <g id="Tryb-izolacji" serif:id="Tryb izolacji" transform="matrix(1,0,0,1,4739.53,60.8219)">
                <g transform="matrix(1,0,0,1,9.3424,64.4271)">
                    <path d="M0,-15.343L36.245,-15.343C37.024,-15.343 37.408,-14.981 37.409,-14.19C37.415,-9.844 37.415,-5.495 37.408,-1.149C37.407,-0.384 37.019,-0.015 36.269,-0.015L-0.019,-0.015C-0.77,-0.015 -1.16,-0.38 -1.161,-1.146C-1.168,-5.495 -1.168,-9.841 -1.162,-14.19C-1.161,-14.981 -0.777,-15.343 0,-15.343M-9.328,-1.749C-9.325,-0.817 -9.284,0.118 -9.168,1.04C-8.837,3.659 -7.89,6.031 -6.133,8.028C-4.522,9.859 -2.536,10.852 -0.025,10.846C12.171,10.816 24.367,10.83 36.563,10.836C37.936,10.839 39.217,10.514 40.348,9.755C43.751,7.468 45.383,4.089 45.456,0.154C45.615,-8.466 45.505,-17.092 45.505,-25.716L45.505,-26.191L45.059,-26.191C29.893,-26.191 14.727,-26.195 -0.44,-26.181C-1.02,-26.181 -1.616,-26.097 -2.177,-25.947C-4.309,-25.377 -5.844,-23.996 -7.04,-22.204C-8.641,-19.806 -9.318,-17.128 -9.331,-14.275C-9.349,-10.098 -9.345,-5.922 -9.328,-1.749" style="fill:white;fill-rule:nonzero;"/>
                </g>
                <g transform="matrix(1,0,0,1,6.0007,36.3467)">
                    <path d="M0,-35.692C-2.241,-34.614 -3.685,-32.786 -4.707,-30.587C-5.351,-29.199 -5.751,-27.766 -5.676,-26.196C-5.598,-24.55 -5.659,-22.896 -5.658,-21.247C-5.658,-21.091 -5.666,-20.928 -5.631,-20.775C-5.189,-18.902 -4.452,-17.159 -3.235,-15.65C-1.531,-13.539 0.612,-12.383 3.407,-12.393C14.112,-12.429 24.817,-12.406 35.523,-12.406C36.929,-12.406 38.336,-12.399 39.742,-12.412C40.213,-12.415 40.498,-12.191 40.659,-11.777C41.003,-10.904 40.492,-10.168 39.546,-10.168L-5.292,-10.168L-5.292,0.655L48.847,0.655L48.847,0.163C48.847,-1.645 48.857,-3.454 48.844,-5.261C48.826,-7.884 48.857,-10.51 48.744,-13.132C48.652,-15.273 48.017,-17.299 46.877,-19.13C45.183,-21.853 42.796,-23.28 39.508,-23.27C27.468,-23.231 15.428,-23.254 3.388,-23.254C3.273,-23.254 3.158,-23.257 3.044,-23.254C2.672,-23.244 2.43,-23.43 2.25,-23.743C1.849,-24.436 2.221,-25.521 3.272,-25.518C18.039,-25.486 32.805,-25.495 47.572,-25.495L48.138,-25.495L48.138,-36.344L47.636,-36.344C32.725,-36.344 17.815,-36.344 2.905,-36.347C1.885,-36.347 0.915,-36.132 0,-35.692" style="fill:white;fill-rule:nonzero;"/>
                </g>
                <g transform="matrix(1,0,0,1,101.27,38.151)">
                    <path d="M0,37.197C2.309,36.702 3.963,35.272 5.221,33.353C6.801,30.939 7.388,28.238 7.39,25.391C7.395,17.113 7.391,8.832 7.391,0.551L7.391,0.078L-0.785,0.078L-0.785,0.606C-0.785,8.786 -0.782,16.963 -0.794,25.143C-0.795,25.472 -0.869,25.837 -1.021,26.124C-1.3,26.652 -1.935,26.668 -2.237,26.157C-2.403,25.876 -2.495,25.515 -2.497,25.189C-2.513,20.811 -2.499,16.436 -2.515,12.057C-2.519,11.158 -2.562,10.249 -2.687,9.36C-3.046,6.793 -3.992,4.46 -5.795,2.561C-7.893,0.352 -10.449,-0.534 -13.443,0.274C-15.69,0.877 -17.272,2.395 -18.475,4.327C-19.915,6.639 -20.487,9.2 -20.495,11.897C-20.508,16.217 -20.499,20.537 -20.499,24.853C-20.499,25.013 -20.491,25.173 -20.506,25.329C-20.563,25.915 -20.939,26.261 -21.524,26.261L-35.989,26.261C-36.558,26.261 -36.822,26.059 -36.961,25.495C-37.014,25.274 -37.035,25.042 -37.034,24.818C-37.009,16.8 -36.98,8.783 -36.951,0.769C-36.951,0.652 -36.947,0.538 -36.952,0.424C-36.958,0.313 -36.973,0.205 -36.983,0.098L-45.203,0.098C-45.203,0.287 -45.202,0.43 -45.203,0.57C-45.207,3.411 -45.215,6.252 -45.216,9.096C-45.218,14.474 -45.212,19.856 -45.218,25.238C-45.219,26.635 -45.064,28.007 -44.695,29.352C-44.002,31.877 -42.78,34.073 -40.654,35.672C-39.598,36.467 -38.431,37.093 -37.079,37.099C-31.756,37.125 -26.432,37.112 -21.108,37.103C-20.71,37.103 -20.305,37.057 -19.915,36.975C-17.87,36.552 -16.281,35.408 -15.025,33.78C-13.209,31.431 -12.373,28.717 -12.339,25.785C-12.285,21.221 -12.329,16.657 -12.315,12.093C-12.314,11.78 -12.238,11.431 -12.089,11.155C-11.801,10.62 -11.184,10.62 -10.893,11.155C-10.75,11.415 -10.692,11.751 -10.691,12.054C-10.678,16.331 -10.7,20.605 -10.671,24.883C-10.663,26.039 -10.604,27.209 -10.408,28.346C-9.934,31.115 -8.785,33.561 -6.628,35.438C-4.717,37.103 -2.498,37.731 0,37.197" style="fill:white;fill-rule:nonzero;"/>
                </g>
                <g transform="matrix(1,0,0,1,108.723,10.842)">
                    <path d="M0,15.337L-43.453,15.337C-44.159,15.337 -44.532,14.982 -44.573,14.272C-44.581,14.128 -44.576,13.985 -44.576,13.842L-44.576,-10.809L-52.74,-10.809L-52.74,26.146L0,26.146L0,15.337Z" style="fill:white;fill-rule:nonzero;"/>
                </g>
            </g>
        </g>
    </g>
</svg>
